{"title":"Southpaw 2015 720p BluRay","uid":12519282,"size":5882090423,"categoryP":"video","categoryS":"hd___movies","magnet":"?xt=urn:btih:a14cfd1fa57847665d417e103d88245f172b1317&amp;dn=Southpaw+2015+720p+BluRay&amp;tr=udp%3A%2F%2Ftracker.leechers-paradise.org%3A6969&amp;tr=udp%3A%2F%2Fzer0day.ch%3A1337&amp;tr=udp%3A%2F%2Fopen.demonii.com%3A1337&amp;tr=udp%3A%2F%2Ftracker.coppersurfer.tk%3A6969&amp;tr=udp%3A%2F%2Fexodus.desync.com%3A6969","seeders":0,"leechers":1,"uploader":"Joker__TPB","files":5,"time":1443831239,"description":"===================================================================================\r\n\tAs tragedy strikes him in his prime| famed boxer| Billy Hope| begins to fall into a great depression. Once the decision regarding the custody of his daughter is\r\nunder question| Billy decides to get his life back on track by getting back into the ring.\r\n===================================================================================\r\nVideo\r\nID                                       : 1\r\nFormat                                   : AVC\r\nFormat/Info                              : Advanced Video Codec\r\nFormat profile                           :   \r\nFormat settings, CABAC                   : Yes\r\nFormat settings, ReFrames                : 5 frames\r\nCodec ID                                 : V_MPEG4/ISO/AVC\r\nDuration                                 : 2h 3mn\r\nBit rate                                 : 4 809 Kbps\r\nWidth                                    : 1 280 pixels\r\nHeight                                   : 528 pixels\r\nDisplay aspect ratio                     : 2.40:1\r\nFrame rate mode                          : Constant\r\nFrame rate                               : 23.976 fps\r\nColor space                              : YUV\r\nChroma subsampling                       : 4:2:0\r\nBit depth                                : 8 bits\r\nScan type                                : Progressive\r\nBits/(Pixel*Frame)                       : 0.297\r\nStream size                              : 4.05 GiB (74%)\r\nWriting library                          : x264 core 148 r2597 e86f3a1\r\nEncoding settings                        : cabac=1 / ref=5 / deblock=1:0:0 / analyse=0x3:0x133 / me=umh / subme=7 / psy=1 / psy_rd=1.00:0.00 / mixed_ref=1 / me_range=16 / chroma_me=1 / trellis=1 / 8x8dct=1 / cqm=0 / deadzone=21,11 / fast_pskip=0 / chroma_qp_offset=-2 / threads=16 / lookahead_threads=2 / sliced_threads=0 / nr=0 / decimate=1 / interlaced=0 / bluray_compat=0 / constrained_intra=0 / bframes=3 / b_pyramid=2 / b_adapt=1 / b_bias=0 / direct=1 / weightb=1 / open_gop=0 / weightp=2 / keyint=250 / keyint_min=23 / scenecut=40 / intra_refresh=0 / rc_lookahead=40 / rc=2pass / mbtree=1 / bitrate=4809 / ratetol=1.0 / qcomp=0.60 / qpmin=0 / qpmax=69 / qpstep=4 / cplxblur=20.0 / qblur=0.5 / ip_ratio=1.40 / aq=1:1.00\r\nLanguage                                 : English\r\nDefault                                  : Yes\r\nForced                                   : No\r\nDURATION                                 : 02:03:48.225000000\r\nNUMBER_OF_FRAMES                         : 178099\r\nNUMBER_OF_BYTES                          : 4463897327\r\n_STATISTICS_WRITING_APP                  : mkvmerge v8.3.0 ('Over the Horizon') 64bit\r\n_STATISTICS_WRITING_DATE_UTC             : 2015-10-02 21:27:33\r\n_STATISTICS_TAGS                         : BPS DURATION NUMBER_OF_FRAMES NUMBER_OF_BYTES\r\n\r\nAudio\r\nID                                       : 2\r\nFormat                                   : DTS\r\nFormat/Info                              : Digital Theater Systems\r\nMode                                     : 16\r\nFormat settings, Endianness              : Big\r\nCodec ID                                 : A_DTS\r\nDuration                                 : 2h 3mn\r\nBit rate mode                            : Constant\r\nBit rate                                 : 1 509 Kbps\r\nChannel(s)                               : 6 channels\r\nChannel positions                        : Front: L C R, Side: L R, LFE\r\nSampling rate                            : 48.0 KHz\r\nBit depth                                : 24 bits\r\nCompression mode                         : Lossy\r\nStream size                              : 1.30 GiB (24%)\r\nLanguage                                 : English\r\nDefault                                  : Yes\r\nForced                                   : No\r\n\r\nMenu\r\n00:00:00.000                             : en:00:00:00.000\r\n00:08:49.696                             : en:00:08:49.696\r\n00:12:58.569                             : en:00:12:58.569\r\n00:20:00.658                             : en:00:20:00.658\r\n00:23:40.085                             : en:00:23:40.085\r\n00:29:34.147                             : en:00:29:34.147\r\n00:34:59.556                             : en:00:34:59.556\r\n00:39:44.299                             : en:00:39:44.299\r\n00:45:46.285                             : en:00:45:46.285\r\n00:52:38.655                             : en:00:52:38.655\r\n00:59:28.815                             : en:00:59:28.815\r\n01:07:08.733                             : en:01:07:08.733\r\n01:12:49.824                             : en:01:12:49.824\r\n01:18:14.481                             : en:01:18:14.481\r\n01:23:40.057                             : en:01:23:40.057\r\n01:29:40.417                             : en:01:29:40.417\r\n01:37:00.148                             : en:01:37:00.148\r\n01:45:19.897                             : en:01:45:19.897\r\n01:55:01.061                             : en:01:55:01.061\r\n01:59:38.505                             : en:01:59:38.505\r\n===================================================================================","torrent":{"xt":"urn:btih:a14cfd1fa57847665d417e103d88245f172b1317","amp;dn":"Southpaw+2015+720p+BluRay","amp;tr":["udp%3A%2F%2Ftracker.leechers-paradise.org%3A6969","udp%3A%2F%2Fzer0day.ch%3A1337","udp%3A%2F%2Fopen.demonii.com%3A1337","udp%3A%2F%2Ftracker.coppersurfer.tk%3A6969","udp%3A%2F%2Fexodus.desync.com%3A6969"],"infoHash":"a14cfd1fa57847665d417e103d88245f172b1317","infoHashBuffer":{"type":"Buffer","data":[161,76,253,31,165,120,71,102,93,65,126,16,61,136,36,95,23,43,19,23]},"announce":[],"urlList":[]}}